<svg width="22" height="27" viewBox="0 0 22 27" fill="none" xmlns="http://www.w3.org/2000/svg">
<path d="M21.5 15.75C21.5 17.8267 20.8842 19.8568 19.7304 21.5835C18.5767 23.3102 16.9368 24.656 15.0182 25.4507C13.0996 26.2455 10.9884 26.4534 8.95155 26.0482C6.91475 25.6431 5.04383 24.6431 3.57538 23.1746C2.10693 21.7062 1.1069 19.8352 0.701756 17.7984C0.29661 15.7616 0.504545 13.6504 1.29926 11.7318C2.09399 9.8132 3.4398 8.17332 5.16651 7.01957C6.89323 5.86581 8.9233 5.25 11 5.25H14.5V0.875L19.75 6.125L14.5 11.375V7H11C9.26941 7 7.57769 7.51318 6.13876 8.47464C4.69983 9.4361 3.57832 10.8027 2.91605 12.4015C2.25379 14.0004 2.08051 15.7597 2.41813 17.457C2.75575 19.1544 3.58911 20.7135 4.81282 21.9372C6.03652 23.1609 7.59563 23.9942 9.29296 24.3319C10.9903 24.6695 12.7496 24.4962 14.3485 23.8339C15.9473 23.1717 17.3139 22.0502 18.2754 20.6112C19.2368 19.1723 19.75 17.4806 19.75 15.75H21.5Z" fill="white"/>
<path d="M14.1766 19.3638C13.79 19.3733 13.4065 19.2924 13.0566 19.1276C12.7459 18.9699 12.4786 18.7386 12.2779 18.4538C12.0578 18.1216 11.9034 17.7503 11.8229 17.3601C11.7195 16.877 11.6696 16.384 11.6741 15.8901C11.6706 15.3961 11.7204 14.9033 11.8229 14.4201C11.905 14.0303 12.0593 13.6593 12.2779 13.3263C12.4786 13.0416 12.7459 12.8102 13.0566 12.6526C13.4065 12.4877 13.79 12.4068 14.1766 12.4163C14.5401 12.3887 14.9047 12.4545 15.2355 12.6077C15.5664 12.7609 15.8525 12.9962 16.0666 13.2913C16.5178 14.0673 16.7308 14.9589 16.6791 15.8551C16.7308 16.7512 16.5178 17.6428 16.0666 18.4188C15.8607 18.7268 15.5781 18.9758 15.2467 19.1415C14.9153 19.3072 14.5466 19.3838 14.1766 19.3638ZM14.1766 18.2963C14.353 18.3068 14.5288 18.2672 14.6836 18.1821C14.8385 18.0969 14.966 17.9697 15.0516 17.8151C15.2607 17.4058 15.3716 16.9534 15.3754 16.4938V15.2863C15.3943 14.835 15.3074 14.3855 15.1216 13.9738C15.0238 13.824 14.8902 13.7009 14.7328 13.6157C14.5754 13.5305 14.3993 13.4858 14.2204 13.4858C14.0414 13.4858 13.8653 13.5305 13.7079 13.6157C13.5506 13.7009 13.4169 13.824 13.3191 13.9738C13.1333 14.3855 13.0464 14.835 13.0654 15.2863V16.4938C13.0473 16.9479 13.1341 17.4 13.3191 17.8151C13.4026 17.9676 13.5272 18.0936 13.6788 18.1787C13.8305 18.2638 14.0029 18.3045 14.1766 18.2963Z" fill="white"/>
<path d="M6.30211 19.2501V18.2176H8.05211V13.6763L6.42461 14.5513L5.94336 13.6238L7.97336 12.4863H9.25086V18.1738H10.8084V19.2501H6.30211Z" fill="white"/>
</svg>
