<svg width="22" height="27" viewBox="0 0 22 27" fill="none" xmlns="http://www.w3.org/2000/svg">
<path d="M0.5 15.75C0.5 17.8267 1.11581 19.8568 2.26957 21.5835C3.42332 23.3102 5.0632 24.656 6.98182 25.4507C8.90045 26.2455 11.0116 26.4534 13.0484 26.0482C15.0852 25.6431 16.9562 24.6431 18.4246 23.1746C19.8931 21.7062 20.8931 19.8352 21.2982 17.7984C21.7034 15.7616 21.4955 13.6504 20.7007 11.7318C19.906 9.8132 18.5602 8.17332 16.8335 7.01957C15.1068 5.86581 13.0767 5.25 11 5.25H7.5V0.875L2.25 6.125L7.5 11.375V7H11C12.7306 7 14.4223 7.51318 15.8612 8.47464C17.3002 9.4361 18.4217 10.8027 19.0839 12.4015C19.7462 14.0004 19.9195 15.7597 19.5819 17.457C19.2442 19.1544 18.4109 20.7135 17.1872 21.9372C15.9635 23.1609 14.4044 23.9942 12.707 24.3319C11.0097 24.6695 9.25037 24.4962 7.65152 23.8339C6.05267 23.1717 4.6861 22.0502 3.72464 20.6112C2.76318 19.1723 2.25 17.4806 2.25 15.75H0.5Z" fill="white"/>
<path d="M14.1766 19.3638C13.79 19.3733 13.4065 19.2924 13.0566 19.1276C12.7459 18.9699 12.4786 18.7386 12.2779 18.4538C12.0578 18.1216 11.9034 17.7503 11.8229 17.3601C11.7195 16.877 11.6696 16.384 11.6741 15.8901C11.6706 15.3961 11.7204 14.9033 11.8229 14.4201C11.905 14.0303 12.0593 13.6593 12.2779 13.3263C12.4786 13.0416 12.7459 12.8102 13.0566 12.6526C13.4065 12.4877 13.79 12.4068 14.1766 12.4163C14.5401 12.3887 14.9047 12.4545 15.2355 12.6077C15.5664 12.7609 15.8525 12.9962 16.0666 13.2913C16.5178 14.0673 16.7308 14.9589 16.6791 15.8551C16.7308 16.7512 16.5178 17.6428 16.0666 18.4188C15.8607 18.7268 15.5781 18.9758 15.2467 19.1415C14.9153 19.3072 14.5466 19.3838 14.1766 19.3638ZM14.1766 18.2963C14.353 18.3068 14.5288 18.2672 14.6836 18.1821C14.8385 18.0969 14.966 17.9697 15.0516 17.8151C15.2607 17.4058 15.3716 16.9534 15.3754 16.4938V15.2863C15.3943 14.835 15.3074 14.3855 15.1216 13.9738C15.0238 13.824 14.8902 13.7009 14.7328 13.6157C14.5754 13.5305 14.3993 13.4858 14.2204 13.4858C14.0414 13.4858 13.8653 13.5305 13.7079 13.6157C13.5506 13.7009 13.4169 13.824 13.3191 13.9738C13.1333 14.3855 13.0464 14.835 13.0654 15.2863V16.4938C13.0473 16.9479 13.1341 17.4 13.3191 17.8151C13.4026 17.9676 13.5272 18.0936 13.6788 18.1787C13.8305 18.2638 14.0029 18.3045 14.1766 18.2963Z" fill="white"/>
<path d="M6.30211 19.2501V18.2176H8.05211V13.6763L6.42461 14.5513L5.94336 13.6238L7.97336 12.4863H9.25086V18.1738H10.8084V19.2501H6.30211Z" fill="white"/>
</svg>
