<svg width="18" height="19" xmlns="http://www.w3.org/2000/svg">
 <title/>
 <desc/>

 <g>
  <title>background</title>
  <rect fill="none" id="canvas_background" height="402" width="582" y="-1" x="-1"/>
 </g>
 <g>
  <title>Layer 1</title>
  <path fill="#ffffff" id="Shape" d="m13.5,9.501218c0,-1.8 -1,-3.3 -2.5,-4l0,2.2l2.5,2.5l0,-0.7l0,0zm2.5,0c0,0.9 -0.2,1.8 -0.5,2.6l1.5,1.5c0.7,-1.2 1,-2.7 1,-4.2c0,-4.3 -3,-7.9 -7,-8.8l0,2.1c2.9,1 5,3.6 5,6.8l0,0zm-14.7,-9l-1.3,1.3l4.7,4.7l-4.7,0l0,6l4,0l5,5l0,-6.7l4.3,4.3c-0.7,0.5 -1.4,0.9 -2.3,1.2l0,2.1c1.4,-0.3 2.6,-0.9 3.7,-1.8l2,2l1.3,-1.3l-9,-9l-7.7,-7.8l0,0zm7.7,1l-2.1,2.1l2.1,2.1l0,-4.2l0,0z"/>
 </g>
</svg>