<svg width="18" height="18" xmlns="http://www.w3.org/2000/svg">
 <title/>
 <desc/>

 <g>
  <title>background</title>
  <rect fill="none" id="canvas_background" height="402" width="582" y="-1" x="-1"/>
 </g>
 <g>
  <title>Layer 1</title>
  <path stroke="null" fill="#ffffff" id="Shape" d="m0,5.945116l0,6.109769l4,0l5,5.091474l0,-16.292718l-5,5.091474l-4,0l0,0zm13.5,3.054885c0,-1.832931 -1,-3.360373 -2.5,-4.07318l0,8.146359c1.5,-0.712806 2.5,-2.240249 2.5,-4.07318l0,0zm-2.5,-8.960995l0,2.138419c2.9,0.916465 5,3.564032 5,6.822576c0,3.258544 -2.1,5.90611 -5,6.822576l0,2.138419c4,-0.916465 7,-4.582327 7,-8.960995c0,-4.378668 -3,-8.04453 -7,-8.960995l0,0z"/>
 </g>
</svg>